{
	"asset":{
		"generator":"Khronos glTF Blender I/O v4.3.47",
		"version":"2.0"
	},
	"scene":0,
	"scenes":[
		{
			"name":"Scene",
			"nodes":[
				0,
				15
			]
		}
	],
	"nodes":[
		{
			"mesh":0,
			"name":"Cube"
		},
		{
			"name":"LLS_HANDLE"
		},
		{
			"mesh":1,
			"name":"LLS_LIGHT_MESH.000",
			"rotation":[
				-0.7071068286895752,
				0,
				-0.7071068286895752,
				3.0090145486383335e-08
			]
		},
		{
			"children":[
				2
			],
			"name":"LLS_LIGHT_HANDLE",
			"rotation":[
				-0.5000000596046448,
				-0.5,
				-0.5,
				0.5
			],
			"scale":[
				3.070955753326416,
				3.070955753326416,
				3.070955991744995
			],
			"translation":[
				0,
				30.000001907348633,
				0
			]
		},
		{
			"children":[
				3
			],
			"name":"LLS_ROTATION",
			"rotation":[
				0.5209376811981201,
				0.3566935062408447,
				0.639872133731842,
				0.4381295144557953
			]
		},
		{
			"children":[
				4
			],
			"name":"LLS_LIGHT.000"
		},
		{
			"mesh":2,
			"name":"LLS_LIGHT_MESH.001",
			"rotation":[
				-0.7071068286895752,
				0,
				-0.7071068286895752,
				1.8159791892458088e-08
			]
		},
		{
			"children":[
				6
			],
			"name":"LLS_LIGHT_HANDLE.001",
			"rotation":[
				-0.5000000596046448,
				-0.5,
				-0.5,
				0.5
			],
			"scale":[
				2.1771278381347656,
				2.1771273612976074,
				2.1771278381347656
			],
			"translation":[
				0,
				30.000003814697266,
				0
			]
		},
		{
			"children":[
				7
			],
			"name":"LLS_ROTATION.001",
			"rotation":[
				-0.34366685152053833,
				-0.9143110513687134,
				0.07540293037891388,
				0.20060616731643677
			]
		},
		{
			"children":[
				8
			],
			"name":"LLS_LIGHT.001"
		},
		{
			"mesh":3,
			"name":"LLS_LIGHT_MESH.002",
			"rotation":[
				-0.7071068286895752,
				0,
				-0.7071068286895752,
				2.7228463039818962e-08
			]
		},
		{
			"children":[
				10
			],
			"name":"LLS_LIGHT_HANDLE.002",
			"rotation":[
				-0.5,
				-0.5000000596046448,
				-0.5000000596046448,
				0.5
			],
			"scale":[
				1.969567060470581,
				1.969567060470581,
				1.9695671796798706
			],
			"translation":[
				0,
				30.000001907348633,
				0
			]
		},
		{
			"children":[
				11
			],
			"name":"LLS_ROTATION.002",
			"rotation":[
				-0.08849625289440155,
				-0.2405257523059845,
				0.33376529812812805,
				0.9071474671363831
			]
		},
		{
			"children":[
				12
			],
			"name":"LLS_LIGHT.002"
		},
		{
			"children":[
				1,
				5,
				9,
				13
			],
			"name":"LLS_PROFILE.000"
		},
		{
			"children":[
				14
			],
			"name":"LEOMOON_LIGHT_STUDIO"
		}
	],
	"materials":[
		{
			"doubleSided":true,
			"name":"Billiard"
		},
		{
			"doubleSided":true,
			"emissiveFactor":[
				1,
				1,
				1
			],
			"name":"LLS_light",
			"pbrMetallicRoughness":{
				"baseColorFactor":[
					0,
					0,
					0,
					1
				]
			}
		},
		{
			"doubleSided":true,
			"emissiveFactor":[
				1,
				1,
				1
			],
			"name":"LLS_light.001",
			"pbrMetallicRoughness":{
				"baseColorFactor":[
					0,
					0,
					0,
					1
				]
			}
		},
		{
			"doubleSided":true,
			"emissiveFactor":[
				1,
				1,
				1
			],
			"name":"LLS_light.002",
			"pbrMetallicRoughness":{
				"baseColorFactor":[
					0,
					0,
					0,
					1
				]
			}
		}
	],
	"meshes":[
		{
			"name":"Cube.001",
			"primitives":[
				{
					"attributes":{
						"POSITION":0,
						"NORMAL":1,
						"TEXCOORD_0":2
					},
					"indices":3,
					"material":0
				}
			]
		},
		{
			"name":"LLS_LIGHT_MESH",
			"primitives":[
				{
					"attributes":{
						"POSITION":4,
						"NORMAL":5,
						"TEXCOORD_0":6
					},
					"indices":7,
					"material":1
				}
			]
		},
		{
			"name":"LLS_LIGHT_MESH.001",
			"primitives":[
				{
					"attributes":{
						"POSITION":8,
						"NORMAL":9,
						"TEXCOORD_0":10
					},
					"indices":7,
					"material":2
				}
			]
		},
		{
			"name":"LLS_LIGHT_MESH.002",
			"primitives":[
				{
					"attributes":{
						"POSITION":11,
						"NORMAL":12,
						"TEXCOORD_0":13
					},
					"indices":7,
					"material":3
				}
			]
		}
	],
	"accessors":[
		{
			"bufferView":0,
			"componentType":5126,
			"count":5010,
			"max":[
				0.8149999976158142,
				0.10901837050914764,
				1.4500000476837158
			],
			"min":[
				-0.8149999976158142,
				-0.7478296756744385,
				-1.4500000476837158
			],
			"type":"VEC3"
		},
		{
			"bufferView":1,
			"componentType":5126,
			"count":5010,
			"type":"VEC3"
		},
		{
			"bufferView":2,
			"componentType":5126,
			"count":5010,
			"type":"VEC2"
		},
		{
			"bufferView":3,
			"componentType":5123,
			"count":20820,
			"type":"SCALAR"
		},
		{
			"bufferView":4,
			"componentType":5126,
			"count":25,
			"max":[
				0.43601036071777344,
				4.450571060180664,
				4.450557231903076
			],
			"min":[
				-0.43227195739746094,
				-4.450570583343506,
				-4.450554847717285
			],
			"type":"VEC3"
		},
		{
			"bufferView":5,
			"componentType":5126,
			"count":25,
			"type":"VEC3"
		},
		{
			"bufferView":6,
			"componentType":5126,
			"count":25,
			"type":"VEC2"
		},
		{
			"bufferView":7,
			"componentType":5123,
			"count":96,
			"type":"SCALAR"
		},
		{
			"bufferView":8,
			"componentType":5126,
			"count":25,
			"max":[
				0.43601036071777344,
				4.450571060180664,
				4.450557231903076
			],
			"min":[
				-0.43227195739746094,
				-4.450570583343506,
				-4.450554847717285
			],
			"type":"VEC3"
		},
		{
			"bufferView":9,
			"componentType":5126,
			"count":25,
			"type":"VEC3"
		},
		{
			"bufferView":10,
			"componentType":5126,
			"count":25,
			"type":"VEC2"
		},
		{
			"bufferView":11,
			"componentType":5126,
			"count":25,
			"max":[
				0.43601036071777344,
				4.450571060180664,
				4.450557231903076
			],
			"min":[
				-0.43227195739746094,
				-4.450570583343506,
				-4.450554847717285
			],
			"type":"VEC3"
		},
		{
			"bufferView":12,
			"componentType":5126,
			"count":25,
			"type":"VEC3"
		},
		{
			"bufferView":13,
			"componentType":5126,
			"count":25,
			"type":"VEC2"
		}
	],
	"bufferViews":[
		{
			"buffer":0,
			"byteLength":60120,
			"byteOffset":0,
			"target":34962
		},
		{
			"buffer":0,
			"byteLength":60120,
			"byteOffset":60120,
			"target":34962
		},
		{
			"buffer":0,
			"byteLength":40080,
			"byteOffset":120240,
			"target":34962
		},
		{
			"buffer":0,
			"byteLength":41640,
			"byteOffset":160320,
			"target":34963
		},
		{
			"buffer":0,
			"byteLength":300,
			"byteOffset":201960,
			"target":34962
		},
		{
			"buffer":0,
			"byteLength":300,
			"byteOffset":202260,
			"target":34962
		},
		{
			"buffer":0,
			"byteLength":200,
			"byteOffset":202560,
			"target":34962
		},
		{
			"buffer":0,
			"byteLength":192,
			"byteOffset":202760,
			"target":34963
		},
		{
			"buffer":0,
			"byteLength":300,
			"byteOffset":202952,
			"target":34962
		},
		{
			"buffer":0,
			"byteLength":300,
			"byteOffset":203252,
			"target":34962
		},
		{
			"buffer":0,
			"byteLength":200,
			"byteOffset":203552,
			"target":34962
		},
		{
			"buffer":0,
			"byteLength":300,
			"byteOffset":203752,
			"target":34962
		},
		{
			"buffer":0,
			"byteLength":300,
			"byteOffset":204052,
			"target":34962
		},
		{
			"buffer":0,
			"byteLength":200,
			"byteOffset":204352,
			"target":34962
		}
	],
	"buffers":[
		{
			"byteLength":204552,
			"uri":"table.bin"
		}
	]
}
